<!DOCTYPE svg PUBLIC "-//W3C//DTD SVG 1.1//EN" "http://www.w3.org/Graphics/SVG/1.1/DTD/svg11.dtd">
<!-- Uploaded to: SVG Repo, www.svgrepo.com, Transformed by: SVG Repo Mixer Tools -->
<svg height="800px" width="800px" version="1.1" id="Capa_1" xmlns="http://www.w3.org/2000/svg" xmlns:xlink="http://www.w3.org/1999/xlink" viewBox="-1.89 -1.89 22.69 22.69" xml:space="preserve" fill="#000000">
<g id="SVGRepo_bgCarrier" stroke-width="0">
<rect x="-1.89" y="-1.89" width="22.69" height="22.69" rx="0" fill="#ffffff" strokewidth="0"/>
</g>
<g id="SVGRepo_tracerCarrier" stroke-linecap="round" stroke-linejoin="round"/>
<g id="SVGRepo_iconCarrier"> <g> <path style="fill:#030104;" d="M17.751,0.001H1.158C0.518,0.001,0,0.519,0,1.158V17.75c0,0.64,0.519,1.156,1.158,1.156h16.593 c0.639,0,1.156-0.517,1.156-1.156V1.158C18.907,0.518,18.39,0.001,17.751,0.001z M8.607,15.237c-1.456,0-2.673-0.333-3.336-0.683 l0.497-2.101c0.535,0.257,1.622,0.59,2.709,0.59c1.161,0,2.396-0.553,2.396-1.824c0-1.236-0.977-1.991-3.373-1.991 c-0.664,0-1.125,0.036-1.622,0.11L6.67,3.054h6.598v2.304H8.624L8.366,7.201C8.624,7.164,8.845,7.164,9.14,7.164 c1.142,0,2.304,0.257,3.153,0.866c0.901,0.607,1.455,1.603,1.455,3.003C13.748,13.263,11.832,15.237,8.607,15.237z"/> </g> </g>
</svg>